<svg id="visual" viewBox="0 0 150 45" width="150" height="45" xmlns="http://www.w3.org/2000/svg" xmlns:xlink="http://www.w3.org/1999/xlink" version="1.1"><rect x="0" y="0" width="150" height="45" fill="#2B303A"></rect><g transform="translate(77.40477565925056 28.371586864641177)"><path d="M5.5 -3.7C11 -6.3 21.9 -12.7 24.3 -12.7C26.6 -12.7 20.3 -6.3 17 -1.9C13.7 2.5 13.3 5 11.9 6.6C10.5 8.2 8 8.9 5.8 8.6C3.7 8.4 1.8 7.2 0 7.2C-1.8 7.2 -3.7 8.4 -5.8 8.6C-8 8.9 -10.5 8.2 -11.2 6.6C-12 5 -11 2.5 -15.3 -2.5C-19.7 -7.5 -29.3 -15 -29.6 -18.3C-29.8 -21.6 -20.7 -20.8 -14.2 -17.5C-7.7 -14.3 -3.8 -8.6 -1.9 -5.3C0 -2 0 -1 5.5 -3.7" fill="#BB004B"></path></g></svg>